<svg xmlns="http://www.w3.org/2000/svg" width="84" height="27" fill="none"><path fill="#151515" d="M8.852 19.42c-1.108 0-2.175-.128-3.202-.385a9.774 9.774 0 0 1-2.765-1.137A6.033 6.033 0 0 1 .96 16.024c-.467-.758-.7-1.64-.7-2.642v-.315h5.39v.245c0 .676.297 1.172.893 1.487.606.315 1.423.473 2.45.473.536 0 1.05-.053 1.54-.158.501-.117.91-.297 1.225-.543.326-.256.49-.577.49-.962 0-.618-.345-1.056-1.033-1.313-.677-.256-1.768-.513-3.272-.77a21.71 21.71 0 0 1-2.59-.595 11.204 11.204 0 0 1-2.415-1.014A5.401 5.401 0 0 1 1.17 8.29C.727 7.625.505 6.82.505 5.875c0-1.26.38-2.322 1.138-3.185.77-.863 1.79-1.517 3.062-1.96C5.977.287 7.377.065 8.905.065c1.458 0 2.818.245 4.078.735 1.26.478 2.28 1.172 3.062 2.082.782.899 1.172 1.984 1.172 3.256v.244H11.88v-.209c0-.467-.152-.846-.455-1.138a2.655 2.655 0 0 0-1.12-.647 4.453 4.453 0 0 0-1.418-.228c-.443 0-.904.053-1.382.157a3.05 3.05 0 0 0-1.19.49c-.327.222-.49.537-.49.946 0 .396.175.723.525.98.35.245.84.449 1.47.612.63.152 1.36.298 2.188.438.781.128 1.604.309 2.467.542.875.222 1.692.543 2.45.963.77.408 1.388.95 1.855 1.627.478.665.717 1.51.717 2.538 0 1.061-.244 1.971-.735 2.73-.49.758-1.155 1.376-1.995 1.855a9.879 9.879 0 0 1-2.782 1.032c-1.015.233-2.06.35-3.133.35ZM33.477 19V8.92c0-.77-.099-1.47-.297-2.1a2.964 2.964 0 0 0-1.068-1.54c-.513-.385-1.254-.578-2.222-.578-.84 0-1.57.193-2.188.578a3.775 3.775 0 0 0-1.4 1.61c-.326.688-.49 1.482-.49 2.38l-1.505-1.085c0-1.61.35-3.022 1.05-4.235a7.647 7.647 0 0 1 2.835-2.853C29.394.41 30.724.066 32.182.066c1.529 0 2.783.31 3.763.927.991.607 1.726 1.459 2.205 2.555.49 1.086.735 2.357.735 3.815V19h-5.408Zm-13.09 0V.415h5.425V19h-5.425Zm28.373.385c-1.354 0-2.561-.216-3.623-.648-1.05-.431-1.872-1.055-2.467-1.872-.595-.817-.893-1.808-.893-2.975 0-1.318.362-2.392 1.085-3.22.724-.828 1.68-1.458 2.87-1.89a15.766 15.766 0 0 1 3.903-.875c2.041-.198 3.447-.38 4.217-.543.782-.163 1.173-.449 1.173-.857V6.47c0-.688-.333-1.23-.998-1.627-.653-.397-1.569-.596-2.747-.596-1.249 0-2.205.228-2.87.683-.654.443-.98 1.126-.98 2.048h-5.338c0-1.494.403-2.754 1.208-3.78.816-1.027 1.919-1.803 3.307-2.328 1.389-.537 2.958-.805 4.708-.805 1.633 0 3.144.25 4.532.752 1.389.49 2.503 1.231 3.343 2.223.851.992 1.277 2.252 1.277 3.78v8.033c0 .478.012.939.035 1.382.035.432.105.828.21 1.19.117.408.263.747.438 1.015.175.268.32.455.437.56H56.25a4.09 4.09 0 0 1-.385-.508 4.224 4.224 0 0 1-.42-.892 7.878 7.878 0 0 1-.315-1.225c-.059-.42-.088-.91-.088-1.47l1.12.77c-.326.77-.857 1.435-1.592 1.995-.724.548-1.587.974-2.59 1.277-.992.292-2.065.438-3.22.438Zm1.452-4.06c.852 0 1.645-.152 2.38-.455a4.154 4.154 0 0 0 1.82-1.47c.467-.665.7-1.534.7-2.607V8.92l1.348 1.313c-.77.28-1.663.513-2.678.7a44.413 44.413 0 0 1-3.01.42c-1.19.116-2.082.32-2.677.612-.584.28-.875.758-.875 1.435 0 .642.25 1.126.752 1.452.502.316 1.249.473 2.24.473Zm13.74 11.323V.415h5.442v26.233H63.95Zm11.182-7.228c-1.47 0-2.818-.39-4.043-1.173-1.225-.793-2.205-1.855-2.94-3.184-.735-1.342-1.102-2.847-1.102-4.516v-.28l2.345-.052v.21c0 .863.21 1.622.63 2.275.42.642.962 1.138 1.627 1.488.665.35 1.36.524 2.083.524 1.19 0 2.222-.408 3.097-1.224.887-.829 1.33-2.118 1.33-3.868s-.437-3.022-1.312-3.815c-.875-.805-1.914-1.207-3.115-1.207-.724 0-1.418.175-2.083.524a4.237 4.237 0 0 0-1.627 1.453c-.42.63-.63 1.382-.63 2.257l-2.345-.14c0-1.68.367-3.161 1.102-4.445.735-1.294 1.715-2.315 2.94-3.062a7.619 7.619 0 0 1 4.043-1.12 8.36 8.36 0 0 1 4.217 1.12c1.307.735 2.363 1.814 3.168 3.238.816 1.423 1.225 3.155 1.225 5.197 0 2.135-.397 3.932-1.19 5.39-.794 1.458-1.844 2.56-3.15 3.307a8.563 8.563 0 0 1-4.27 1.103Z"/></svg>